<svg version="1.1"
    width="300" height="300"
    xmlns="http://www.w3.org/2000/svg">

<!-- <circle cx="150" cy="150" r="150" fill="grey"/> -->
<polygon points="150.0 0.0, 211.01049646137002 12.96818135360987, 150 150" fill="#f00" stroke="white" stroke-width="0"/>
<polygon points="211.01049646137002 12.96818135360987, 261.47172382160915 49.630409046171266, 150 150" fill="#f80" stroke="white" stroke-width="0"/>
<polygon points="261.47172382160915 49.630409046171266, 292.65847744427305 103.64745084375788, 150 150" fill="#ff0" stroke="white" stroke-width="0"/>
<polygon points="292.65847744427305 103.64745084375788, 299.178284305241 165.679269490148, 150 150" fill="#0f0" stroke="white" stroke-width="0"/>
<polygon points="299.178284305241 165.679269490148, 279.9038105676658 224.99999999999997, 150 150" fill="#0df" stroke="white" stroke-width="0"/>

<polygon points="279.9038105676658 224.99999999999997, 238.16778784387097 271.3525491562421, 150 150" fill="#04f" stroke="white" stroke-width="0"/>
<polygon points="238.16778784387097 271.3525491562421, 181.18675362266387 296.7221401100709, 150 150" fill="#0df" stroke="white" stroke-width="0"/>
<polygon points="181.18675362266387 296.7221401100709, 118.81324637733613 296.7221401100709, 150 150" fill="#d0d" stroke="white" stroke-width="0"/>
<polygon points="118.81324637733613 296.7221401100709, 61.832212156129046 271.3525491562421, 150 150" fill="#80f" stroke="white" stroke-width="0"/>
<polygon points="61.832212156129046 271.3525491562421, 20.096189432334228 225.00000000000006, 150 150" fill="#f80" stroke="white" stroke-width="0"/>

<polygon points="20.096189432334228 225.00000000000006, 0.8217156947590065 165.67926949014813, 150 150" fill="#840" stroke="white" stroke-width="0"/>
<polygon points="0.8217156947590065 165.67926949014813, 7.341522555726954 103.64745084375791, 150 150" fill="#0df" stroke="white" stroke-width="0"/>
<polygon points="7.341522555726954 103.64745084375791, 38.52827617839091 49.630409046171216, 150 150" fill="#555" stroke="white" stroke-width="0"/>
<polygon points="38.52827617839091 49.630409046171216, 88.98950353862998 12.968181353609854, 150 150" fill="#fff" stroke="white" stroke-width="0"/>
<polygon points="88.98950353862998 12.968181353609854, 150.0 0.0, 150 150" fill="#ff0" stroke="white" stroke-width="0"/>

<polygon points="150.0 15.0, 204.90944681523303 26.671363218248885, 250.32455143944821 59.667368141554135, 278.3926296998457 108.28270575938211, 284.26045587471685 164.1113425411332, 266.9134295108992 217.49999999999997, 229.35100905948389 259.2172942406179, 178.0680782603975 282.0499260990638, 121.93192173960252 282.0499260990638, 70.64899094051614 259.2172942406179, 33.08657048910081 217.50000000000006, 15.739544125283118 164.11134254113333, 21.60737030015426 108.28270575938211, 49.67544856055183 59.66736814155409, 95.09055318476699 26.67136321824887" fill="#000" />

<text x="150" y="180" font-size="100" text-anchor="middle" fill="white"></text>

</svg>
